<svg width="50" height="50" viewBox="0 0 50 50" fill="none" xmlns="http://www.w3.org/2000/svg">
<path d="M25.0002 9.02789C19.3203 9.02789 14.5477 13.5085 13.1946 18.7501C13.422 18.7218 14.001 18.7501 14.2362 18.7501C17.3045 18.7501 18.7501 20.8334 19.4446 23.95C19.4446 26.3296 18.4324 28.3828 16.3196 29.1668L15.7539 29.6433C18.1826 30.0501 20.3491 31.2389 21.9733 32.9505C22.9474 33.2005 23.9478 33.3334 25.0002 33.3334C26.0475 33.3334 27.1175 33.2051 28.0928 32.9505C30.1229 30.8114 32.9339 29.8612 36.1112 29.8612L33.6807 29.1668C31.5678 28.3828 30.5557 26.3296 30.5557 23.95C30.9029 21.1807 32.6957 18.7501 35.764 18.7501C35.9992 18.7501 36.5782 18.7218 36.8057 18.7501C35.4525 13.5085 30.68 9.02789 25.0002 9.02789Z" fill="#00ED64"/>
<path fill-rule="evenodd" clip-rule="evenodd" d="M12.9059 18.4844C14.3526 13.1951 19.1993 8.68066 25.0002 8.68066C30.801 8.68066 35.6475 13.195 37.0943 18.4844C39.8864 18.9524 42.014 21.3806 42.014 24.3057C42.014 26.7498 40.5285 28.847 38.4111 29.7436C43.6202 30.7992 47.5695 35.3741 47.5695 40.9723C47.5695 41.1641 47.4141 41.3195 47.2223 41.3195H2.77789C2.58612 41.3195 2.43066 41.1641 2.43066 40.9723C2.43066 35.4544 6.3819 30.816 11.5951 29.7462C9.47454 28.851 7.98622 26.7521 7.98622 24.3057C7.98622 21.3805 10.1137 18.9527 12.9059 18.4844ZM13.6499 18.4076C14.9626 13.9885 18.754 10.2321 23.3728 9.50297C23.2952 9.5863 23.2196 9.6747 23.1462 9.76759C22.6257 10.426 22.1722 11.3574 21.7977 12.4773C21.0734 14.6436 20.6215 17.5875 20.5913 20.8334H18.663C17.5897 19.3603 15.8512 18.4029 13.889 18.4029C13.8089 18.4029 13.7292 18.4045 13.6499 18.4076ZM36.3503 18.4076C35.0376 13.9885 31.2463 10.2321 26.6275 9.50297C26.7052 9.5863 26.7807 9.67471 26.8541 9.76759C27.3746 10.426 27.8282 11.3574 28.2026 12.4773C28.9269 14.6436 29.3788 17.5875 29.409 20.8334H31.3372C32.4105 19.3603 34.149 18.4029 36.1112 18.4029C36.1913 18.4029 36.271 18.4045 36.3503 18.4076ZM30.9016 21.5279H29.409C29.3788 24.7738 28.9269 27.7177 28.2026 29.8841C27.8282 31.004 27.3746 31.9353 26.8541 32.5937C26.7612 32.7113 26.6649 32.8216 26.5653 32.9236C27.1492 32.877 27.73 32.8023 28.2094 32.693C29.74 31.2312 31.6718 30.1865 33.8174 29.7462C31.6968 28.851 30.2084 26.7521 30.2084 24.3057C30.2084 23.3014 30.4592 22.3558 30.9016 21.5279ZM28.5576 33.3228L28.56 33.3222L28.5597 33.3208C30.5066 31.399 33.1768 30.2084 36.1112 30.2084C41.9179 30.2084 46.6874 34.7802 46.8697 40.6251H25.3529C25.4443 37.7785 26.6555 35.2015 28.5576 33.3228ZM27.4123 33.5342C26.5941 33.6398 25.7024 33.6807 25.0002 33.6807C24.3041 33.6807 23.429 33.6389 22.6225 33.5368C23.742 34.8501 24.5699 36.4231 25.004 38.1609C25.4446 36.43 26.2819 34.8533 27.4123 33.5342ZM21.4488 33.2945L21.4416 33.3225C21.4574 33.3266 21.4733 33.3306 21.4894 33.3346C23.3659 35.1995 24.5581 37.7593 24.6475 40.6251H3.13068C3.31567 34.8647 8.08582 30.2084 13.889 30.2084C16.8281 30.2084 19.5015 31.3797 21.4488 33.2945ZM21.8357 32.7022C22.3061 32.8046 22.8681 32.8763 23.4336 32.9221C23.3345 32.8205 23.2386 32.7107 23.1462 32.5937C22.6257 31.9353 22.1722 31.004 21.7977 29.8841C21.0734 27.7177 20.6215 24.7738 20.5913 21.5279H19.0986C19.541 22.3558 19.7918 23.3014 19.7918 24.3057C19.7918 26.7504 18.3057 28.8472 16.1887 29.7436C18.3527 30.1821 20.2993 31.2279 21.8357 32.7022ZM23.691 10.1982C24.1457 9.62296 24.5907 9.37511 25.0002 9.37511C25.4096 9.37511 25.8546 9.62296 26.3094 10.1982C26.7611 10.7697 27.1831 11.6181 27.544 12.6975C28.2394 14.7773 28.6843 17.6435 28.7145 20.8334H21.2858C21.316 17.6435 21.761 14.7773 22.4563 12.6975C22.8172 11.6181 23.2392 10.7697 23.691 10.1982ZM22.4563 29.6639C21.761 27.584 21.316 24.7178 21.2858 21.5279H28.7145C28.6843 24.7178 28.2394 27.584 27.544 29.6639C27.1831 30.7432 26.7611 31.5916 26.3094 32.1631C25.8546 32.7384 25.4096 32.9862 25.0002 32.9862C24.5907 32.9862 24.1457 32.7384 23.691 32.1631C23.2392 31.5916 22.8172 30.7432 22.4563 29.6639ZM13.2375 19.1376C13.4508 19.111 13.6682 19.0973 13.889 19.0973C16.7655 19.0973 19.0973 21.4292 19.0973 24.3057C19.0973 26.5427 17.6868 28.4512 15.7055 29.1886C15.1404 29.3989 14.5285 29.514 13.889 29.514C11.0125 29.514 8.68066 27.1821 8.68066 24.3057C8.68066 21.6499 10.6687 19.458 13.2375 19.1376ZM30.9029 24.3057C30.9029 21.4292 33.2347 19.0973 36.1112 19.0973C38.9877 19.0973 41.3195 21.4292 41.3195 24.3057C41.3195 27.1821 38.9877 29.514 36.1112 29.514C33.2347 29.514 30.9029 27.1821 30.9029 24.3057Z" fill="#001E2B"/>
</svg>
