<svg width="50" height="50" viewBox="0 0 50 50" fill="none" xmlns="http://www.w3.org/2000/svg">
<path fill-rule="evenodd" clip-rule="evenodd" d="M31.2499 29.5138H23.611V28.8193H31.2499V29.5138Z" fill="#001E2B"/>
<path fill-rule="evenodd" clip-rule="evenodd" d="M21.0988 23.4549L15.7317 18.306L16.2125 17.8049L21.5888 22.9626C21.7639 23.1387 21.8749 23.3626 21.8749 23.611C21.8749 23.8594 21.7639 24.0832 21.5887 24.2593L21.583 24.2651L16.2125 29.4171L15.7317 28.916L21.0988 23.7671C21.1684 23.6962 21.1805 23.6416 21.1805 23.611C21.1805 23.5804 21.1684 23.5258 21.0988 23.4549Z" fill="#001E2B"/>
<path d="M12.5305 11.1109C14.4482 11.1109 15.9959 9.55638 15.9874 7.63874C15.979 5.72111 14.4175 4.16655 12.4999 4.16655C10.5822 4.16655 9.03452 5.72111 9.04297 7.63874C9.05142 9.55638 10.6128 11.1109 12.5305 11.1109Z" fill="#00ED64"/>
<path d="M45.8332 18.0554C45.8332 16.1378 44.2786 14.5904 42.361 14.5993C40.4433 14.6081 38.8888 16.1699 38.8888 18.0875C38.8888 20.0052 40.4433 21.5526 42.361 21.5437C44.2786 21.5348 45.8332 19.9731 45.8332 18.0554Z" fill="#00ED64"/>
<path d="M27.1439 42.3289C27.1439 40.4112 25.5893 38.8638 23.6717 38.8727C21.7541 38.8816 20.1995 40.4433 20.1995 42.361C20.1995 44.2786 21.7541 45.826 23.6717 45.8172C25.5893 45.8083 27.1439 44.2465 27.1439 42.3289Z" fill="#00ED64"/>
<path fill-rule="evenodd" clip-rule="evenodd" d="M41.1596 14.4504C37.8543 8.13155 31.2362 3.81934 23.611 3.81934C20.7823 3.81934 18.0921 4.41278 15.6583 5.48195C14.9657 4.47797 13.8075 3.81934 12.4984 3.81934C10.3889 3.81934 8.68646 5.52934 8.69575 7.63874C8.69936 8.45652 8.95971 9.21427 9.4001 9.83562C5.94571 13.3985 3.81934 18.2565 3.81934 23.611C3.81934 33.2787 10.751 41.3274 19.9155 43.0583C20.2427 44.8338 21.7999 46.173 23.6717 46.1644C25.5392 46.1557 27.0937 44.8082 27.4256 43.0354C36.531 41.2575 43.4027 33.2368 43.4027 23.611C43.4027 22.9888 43.374 22.3732 43.3178 21.7657C44.9641 21.3334 46.1804 19.8328 46.1804 18.0538C46.1804 15.9444 44.4704 14.2423 42.361 14.252C41.9413 14.254 41.5374 14.3236 41.1596 14.4504ZM16.0009 6.09029C16.2131 6.56358 16.3322 7.08752 16.3346 7.63874C16.3439 9.74814 14.6415 11.4582 12.532 11.4582C11.4909 11.4582 10.5452 11.0416 9.85327 10.366C6.5469 13.7996 4.51378 18.4679 4.51378 23.611C4.51378 32.8715 11.1052 40.5926 19.8523 42.3384C19.8653 40.2401 21.5703 38.5352 23.6717 38.5255C25.7766 38.5158 27.4838 40.2106 27.491 42.3138C36.1777 40.521 42.7082 32.8287 42.7082 23.611C42.7082 23.0276 42.6821 22.4504 42.6309 21.8803C42.5417 21.8869 42.4517 21.8905 42.361 21.8909C40.2516 21.9007 38.5416 20.1986 38.5416 18.0891C38.5416 16.6462 39.3418 15.3864 40.5226 14.7313C37.3262 8.65626 30.9524 4.51378 23.611 4.51378C20.9061 4.51378 18.3326 5.07613 16.0009 6.09029ZM9.3902 7.63874C9.38259 5.91287 10.7755 4.51377 12.5014 4.51377C14.2273 4.51377 15.6326 5.91287 15.6402 7.63874C15.6478 9.36462 14.2549 10.7637 12.529 10.7637C10.8031 10.7637 9.3978 9.36462 9.3902 7.63874ZM42.361 21.1965C40.6351 21.2045 39.236 19.8118 39.236 18.0859C39.236 16.36 40.6351 14.9545 42.361 14.9465C44.0868 14.9385 45.4859 16.3312 45.4859 18.0571C45.4859 19.7829 44.0868 21.1885 42.361 21.1965ZM20.5467 42.3594C20.5467 44.0853 21.9458 45.4779 23.6717 45.4699C25.3975 45.4619 26.7966 44.0564 26.7966 42.3305C26.7966 40.6046 25.3975 39.2119 23.6717 39.2199C21.9458 39.2279 20.5467 40.6335 20.5467 42.3594Z" fill="#001E2B"/>
</svg>
