<svg width="34" height="34" viewBox="0 0 34 34" fill="none" xmlns="http://www.w3.org/2000/svg">
<path d="M17 1C17.7975 1 18.5452 1.04984 19.2928 1.14953C19.4922 1.19938 19.5919 1.29907 19.6916 1.4486C20.4891 3.24299 22.2336 4.43925 24.2274 4.43925C24.8754 4.43925 25.4735 4.33956 26.0716 4.14019C26.2212 4.09034 26.4206 4.09034 26.5701 4.19003C27.8162 5.13707 28.9128 6.23364 29.8598 7.47975C29.9595 7.62928 29.9595 7.82866 29.9097 7.97819C29.6604 8.57632 29.5607 9.17445 29.5607 9.77259C29.5607 11.7664 30.757 13.5109 32.5514 14.3084C32.7009 14.3583 32.8505 14.5078 32.8505 14.7072C33.0498 16.2523 33.0498 17.7975 32.8505 19.3427C32.8006 19.5421 32.7009 19.6417 32.5514 19.7414C30.757 20.5389 29.5607 22.2835 29.5607 24.2773C29.5607 24.9252 29.6604 25.5234 29.9097 26.0716C29.9595 26.2212 29.9595 26.4206 29.8598 26.5701C28.9128 27.8162 27.8162 28.9128 26.5701 29.8598C26.4206 29.9595 26.2212 29.9595 26.0716 29.9097C25.4735 29.6604 24.8754 29.5607 24.2274 29.5607C22.2336 29.5607 20.4891 30.757 19.6916 32.5514C19.6417 32.7009 19.4922 32.8505 19.2928 32.8505C17.7477 33.0498 16.2025 33.0498 14.6573 32.8505C14.4579 32.8006 14.3583 32.7009 14.2586 32.5514C13.4611 30.757 11.7165 29.5607 9.72274 29.5607C9.07477 29.5607 8.47663 29.6604 7.8785 29.9097C7.72897 29.9595 7.52959 29.9595 7.38006 29.8598C6.13396 28.9128 5.03738 27.8162 4.14019 26.5701C4.0405 26.4206 4.0405 26.2212 4.09034 26.0716C4.33956 25.4735 4.43925 24.8754 4.43925 24.2274C4.43925 22.2336 3.24299 20.4891 1.4486 19.6916C1.29907 19.6417 1.14953 19.4922 1.14953 19.2928C0.950156 17.7477 0.950156 16.2025 1.14953 14.6573C1.19938 14.4579 1.29907 14.3583 1.4486 14.2586C3.24299 13.4611 4.43925 11.7165 4.43925 9.72274C4.43925 9.07477 4.33956 8.47663 4.09034 7.8785C4.0405 7.72897 4.0405 7.52959 4.14019 7.38006C5.03738 6.13396 6.13396 5.03738 7.38006 4.14019C7.52959 4.0405 7.72897 4.0405 7.8785 4.09034C8.47663 4.33956 9.07477 4.43925 9.6729 4.43925C11.6667 4.43925 13.4112 3.24299 14.2087 1.4486C14.2586 1.29907 14.4081 1.14953 14.6075 1.14953C15.4548 1.09969 16.2025 1 17 1Z" stroke="#001E2B" stroke-miterlimit="10"/>
<path d="M21.3027 11.2894L11.3993 21.1806L10.0788 19.8618C9.71416 19.4976 9.71416 18.9071 10.0788 18.543L18.6618 9.97058C19.0264 9.6064 19.6176 9.6064 19.9822 9.97058L21.3027 11.2894Z" fill="#00ED64"/>
<path d="M11.6988 16.5835L9 13.8881M16.4693 11.8184L13.7706 9.123M22.4198 22.2968C25.1546 19.5655 25.2114 15.1938 22.5468 12.5324L21.0994 11.0868M22.4198 22.2968C19.6851 25.0282 15.308 25.085 12.6433 22.4236L11.1959 20.978M22.4198 22.2968L25 24.877M21.3027 11.2894L11.3993 21.1806L10.0788 19.8618C9.71416 19.4976 9.71416 18.9071 10.0788 18.543L18.6618 9.97058C19.0264 9.6064 19.6176 9.6064 19.9822 9.97058L21.3027 11.2894Z" stroke="#001E2B"/>
</svg>
