<svg width="28" height="29" viewBox="0 0 28 29" fill="none" xmlns="http://www.w3.org/2000/svg">
<path fill-rule="evenodd" clip-rule="evenodd" d="M27.9842 6.56056C27.9946 6.59922 27.9999 6.63908 28 6.67913V12.9039C28 12.9838 27.979 13.0623 27.9392 13.1314C27.8994 13.2005 27.8422 13.2579 27.7733 13.2976L22.5803 16.3056V22.2677C22.5803 22.43 22.4946 22.5798 22.3548 22.6615L11.5149 28.9396C11.4901 28.9537 11.463 28.9628 11.4359 28.9725C11.4258 28.9759 11.4162 28.9821 11.4055 28.9849C11.3297 29.005 11.2501 29.005 11.1743 28.9849C11.1619 28.9815 11.1506 28.9747 11.1388 28.9702C11.1139 28.9611 11.088 28.9532 11.0643 28.9396L0.226689 22.6615C0.15784 22.6217 0.100634 22.5643 0.0608363 22.4952C0.0210383 22.4261 5.45516e-05 22.3476 0 22.2677L0 3.59341C0 3.55256 0.00563902 3.51285 0.0157893 3.47427C0.0191727 3.46122 0.0270673 3.44931 0.0315785 3.43626C0.0400371 3.41243 0.0479317 3.38804 0.0603375 3.36591C0.0687961 3.35116 0.0812019 3.33925 0.0913522 3.32563C0.104322 3.30748 0.116164 3.28875 0.131389 3.27287C0.144359 3.25982 0.161276 3.25017 0.175937 3.23883C0.192291 3.22521 0.206952 3.21046 0.225561 3.19968L5.64522 0.0606315C5.71384 0.0209072 5.79162 0 5.87079 0C5.94995 0 6.02773 0.0209072 6.09635 0.0606315L11.5154 3.19968H11.5166C11.5346 3.21103 11.5498 3.22521 11.5662 3.23826C11.5809 3.24961 11.5972 3.25982 11.6102 3.2723C11.626 3.28875 11.6372 3.30748 11.6508 3.32563C11.6604 3.33925 11.6733 3.35116 11.6812 3.36591C11.6942 3.3886 11.7015 3.41243 11.7106 3.43626C11.7151 3.44931 11.723 3.46122 11.7263 3.47484C11.7367 3.5135 11.742 3.55336 11.7421 3.59341V15.2572L16.2579 12.6412V6.67856C16.2579 6.63885 16.2635 6.59857 16.2737 6.56056C16.2776 6.54694 16.2849 6.53503 16.2894 6.52198C16.2985 6.49815 16.3064 6.47376 16.3188 6.45163C16.3272 6.43688 16.3396 6.42497 16.3492 6.41135C16.3628 6.3932 16.374 6.37447 16.3898 6.35859C16.4028 6.34554 16.4191 6.3359 16.4338 6.32455C16.4507 6.31093 16.4654 6.29618 16.4834 6.2854L21.9037 3.14635C21.9722 3.10657 22.05 3.08563 22.1292 3.08563C22.2084 3.08563 22.2862 3.10657 22.3548 3.14635L27.7739 6.2854C27.793 6.29675 27.8077 6.31093 27.8246 6.32398C27.8387 6.33533 27.8551 6.34554 27.868 6.35802C27.8838 6.37447 27.8951 6.3932 27.9086 6.41135C27.9188 6.42497 27.9312 6.43688 27.9391 6.45163C27.9521 6.47376 27.9594 6.49815 27.9684 6.52198C27.9735 6.53503 27.9808 6.54694 27.9842 6.56056ZM27.0966 12.6412V7.46489L25.2002 8.56324L22.5803 10.0809V15.2572L27.0972 12.6412H27.0966ZM21.6775 22.005V16.8253L19.1005 18.306L11.7416 22.5315V27.7601L21.6775 22.005ZM0.903371 4.37917V22.005L10.8382 27.7595V22.5321L5.64804 19.5769L5.64635 19.5757L5.6441 19.5746C5.62662 19.5644 5.61195 19.5496 5.5956 19.5372C5.5815 19.5258 5.56515 19.5167 5.55274 19.5042L5.55162 19.5025C5.53696 19.4884 5.52681 19.4708 5.5144 19.4549C5.50312 19.4396 5.48959 19.4265 5.48057 19.4106L5.48 19.4089C5.46985 19.3919 5.46365 19.3715 5.45632 19.3522C5.44899 19.3352 5.4394 19.3193 5.43489 19.3011C5.42925 19.2796 5.42812 19.2563 5.42587 19.2342C5.42361 19.2172 5.4191 19.2002 5.4191 19.1831V19.182V6.99514L2.79977 5.47695L0.903371 4.37917ZM5.87135 0.978575L1.35618 3.59341L5.87022 6.20825L10.3848 3.59284L5.87022 0.978575H5.87135ZM8.21944 17.2973L10.8388 15.7803V4.37917L8.94236 5.47752L6.32247 6.99514V18.3962L8.21944 17.2973ZM22.1292 4.0643L17.6146 6.67913L22.1292 9.29397L26.6433 6.67856L22.1292 4.0643ZM21.6775 10.0809L19.0576 8.56324L17.1612 7.46489V12.6412L19.7806 14.1583L21.6775 15.2572V10.0809ZM11.2893 21.7458L17.9112 17.9424L21.2213 16.0418L16.7101 13.4287L11.516 16.4372L6.78205 19.1792L11.2893 21.7458Z" fill="#FF2D20"/>
</svg>
