<svg width="50" height="50" viewBox="0 0 50 50" fill="none" xmlns="http://www.w3.org/2000/svg">
<path d="M38.889 27.7778C40.0396 27.7778 40.9723 26.8451 40.9723 25.6945C40.9723 24.5439 40.0396 23.6112 38.889 23.6112C37.7384 23.6112 36.8057 24.5439 36.8057 25.6945C36.8057 26.8451 37.7384 27.7778 38.889 27.7778Z" fill="#00ED64"/>
<path d="M25.6251 12.7084C24.9307 12.4306 23.7501 12.4306 22.9862 12.7084L9.02789 18.0556L22.9862 23.4028C23.6807 23.6806 24.8612 23.6806 25.6251 23.4028L39.5834 18.0556L25.6251 12.7084Z" fill="#00ED64"/>
<path fill-rule="evenodd" clip-rule="evenodd" d="M17.7084 31.25H17.014V21.4868L8.90367 18.3799C8.76935 18.3284 8.68066 18.1994 8.68066 18.0556C8.68066 17.9118 8.76935 17.7828 8.90367 17.7314L22.8675 12.382C23.2973 12.2257 23.8258 12.1528 24.3317 12.1528C24.8349 12.1528 25.3502 12.225 25.7516 12.385L25.7541 12.386L39.7077 17.7314C39.842 17.7828 39.9307 17.9118 39.9307 18.0556C39.9307 18.1994 39.842 18.3284 39.7077 18.3799L39.2362 18.5605V23.2886C40.4141 23.457 41.3195 24.47 41.3195 25.6945C41.3195 27.0369 40.2314 28.1251 38.889 28.1251C37.5466 28.1251 36.4584 27.0369 36.4584 25.6945C36.4584 24.47 37.3639 23.457 38.5418 23.2886V18.8265L31.5973 21.4868V31.25H30.9029C30.9029 29.5294 29.5352 28.174 27.7779 28.174C26.0205 28.174 24.6529 29.5294 24.6529 31.25H23.9584C23.9584 29.5294 22.5908 28.174 20.8334 28.174C19.0761 28.174 17.7084 29.5294 17.7084 31.25ZM30.9029 21.7528L25.7438 23.7292C25.314 23.8855 24.7855 23.9584 24.2796 23.9584C23.7764 23.9584 23.2611 23.8862 22.8597 23.7262L17.7084 21.7528V29.0595C18.3959 28.0973 19.532 27.4795 20.8334 27.4795C22.3873 27.4795 23.7053 28.3601 24.3057 29.656C24.906 28.3601 26.2241 27.4795 27.7779 27.4795C29.0794 27.4795 30.2154 28.0973 30.9029 29.0595V21.7528ZM38.5418 18.0828L25.5037 23.0775C25.17 23.1984 24.7274 23.2639 24.2796 23.2639C23.829 23.2639 23.4079 23.1975 23.1152 23.0804L9.9985 18.0556L23.1076 13.0337C23.4413 12.9129 23.884 12.8473 24.3317 12.8473C24.7824 12.8473 25.2035 12.9137 25.4961 13.0308L38.6128 18.0556H38.5418V18.0828ZM38.889 23.9584C37.9302 23.9584 37.1529 24.7357 37.1529 25.6945C37.1529 26.6533 37.9302 27.4306 38.889 27.4306C39.8478 27.4306 40.6251 26.6533 40.6251 25.6945C40.6251 24.7357 39.8478 23.9584 38.889 23.9584Z" fill="#001E2B"/>
<path fill-rule="evenodd" clip-rule="evenodd" d="M2.43066 7.63894C2.43066 6.68329 3.21112 5.90283 4.16678 5.90283H45.8334C46.7891 5.90283 47.5695 6.68329 47.5695 7.63894V35.4167C47.5695 36.3724 46.7891 37.1528 45.8334 37.1528H30.5345L32.2192 42.3258C32.3591 42.7679 32.2954 43.2171 32.0372 43.5597C31.7788 43.9025 31.3574 44.0973 30.8623 44.0973H19.1379C18.6568 44.0973 18.2316 43.9295 17.9667 43.5906C17.7001 43.2495 17.6451 42.7978 17.7784 42.3346L17.78 42.3288L19.4657 37.1528H4.16678C3.21112 37.1528 2.43066 36.3724 2.43066 35.4167V7.63894ZM4.16678 6.59728C3.59465 6.59728 3.12511 7.06682 3.12511 7.63894V35.4167C3.12511 35.9888 3.59465 36.4584 4.16678 36.4584H45.8334C46.4056 36.4584 46.8751 35.9888 46.8751 35.4167V7.63894C46.8751 7.06682 46.4056 6.59728 45.8334 6.59728H4.16678ZM20.1961 37.1528L18.4442 42.5321C18.3599 42.8298 18.4147 43.0361 18.5139 43.163C18.6154 43.2928 18.813 43.4028 19.1379 43.4028H30.8623C31.1732 43.4028 31.3746 43.2851 31.4826 43.1418C31.5906 42.9985 31.6368 42.7885 31.5576 42.5368L31.5571 42.5354L29.8041 37.1528H20.1961Z" fill="#001E2B"/>
</svg>
