<svg width="36" height="38" viewBox="0 0 36 38" fill="none" xmlns="http://www.w3.org/2000/svg">
<path d="M26.0587 24.1554C25.7684 20.7706 24.5324 18.5765 23.9305 17.3329C23.329 16.0897 22.404 14.9258 22.4034 14.9277C22.4016 14.933 21.5706 18.8886 20.0765 21.7505C19.8272 22.2285 19.4959 22.8253 19.1617 23.3058C18.1302 24.9145 16.6335 26.4535 15.7415 28.0134C14.857 29.5594 14.6929 31.0905 14.7751 32.8312C14.858 34.5815 15.3158 36.2983 15.7554 38C17.4122 37.6842 18.8543 37.1439 20.1018 36.4533C23.3847 34.6352 25.3684 31.7275 25.9321 28.5947C25.9321 28.5947 25.9595 28.4675 25.9719 28.3123C26.226 25.8911 26.142 25.1272 26.0587 24.1554Z" fill="#40B3D8"/>
<path d="M26.0589 24.1552C25.7686 20.7704 24.5326 18.5764 23.9307 17.3328C23.3292 16.0895 22.4042 14.9256 22.4036 14.9276L22.4034 14.9285C22.4034 14.9279 22.4036 14.9276 22.4036 14.9276L22.1828 14.6374C17.3415 8.63435 8.05674 5.63711 0.212066 8.41512C-0.165682 12.623 2.04278 19.8628 10.0999 21.8822C13.3571 22.7673 15.9654 22.5378 19.162 23.3055C19.1618 23.3055 19.1618 23.3057 19.1618 23.3057C19.1618 23.3057 22.4111 24.306 24.3015 25.806C25.1518 26.4805 26.0032 27.3683 25.9605 28.4243C26.2298 25.9113 26.1435 25.1425 26.0589 24.1552Z" fill="#83C933"/>
<path fill-rule="evenodd" clip-rule="evenodd" d="M22.5405 11.405C21.3957 8.44655 21.8808 6.46419 23.9752 3.70548C24.9741 2.38923 26.6987 0.862523 28.2103 0C34.3089 3.37567 36.5638 9.66328 34.321 15.5028C32.6888 19.7517 31.1573 21.5332 27.2851 25.9048C27.7363 21.2229 25.8708 17.977 24.0393 14.3703C23.5732 13.4527 22.9285 12.4081 22.5405 11.405Z" fill="#F18A2A"/>
<path d="M25.9606 28.4245C26.0033 27.3685 25.1518 26.4807 24.3015 25.8062C22.4112 24.3061 19.1621 23.3058 19.1621 23.3058C19.4963 22.8252 19.8276 22.2285 20.077 21.7505C21.5711 18.8886 22.4021 14.933 22.4039 14.9277C22.4045 14.926 23.3293 16.0897 23.931 17.3329C24.5328 18.5765 25.7686 20.7704 26.0591 24.1554C26.1436 25.1427 26.2298 25.9115 25.9606 28.4245Z" fill="#7FB93C"/>
</svg>
